<?xml version="1.0" encoding="UTF-8"?>
<svg width="141px" height="140px" viewBox="0 0 141 140" version="1.1" xmlns="http://www.w3.org/2000/svg" xmlns:xlink="http://www.w3.org/1999/xlink">
    <!-- Generator: Sketch 53.2 (72643) - https://sketchapp.com -->
    <title>Group</title>
    <desc>Created with Sketch.</desc>
    <defs>
        <path d="M88.2064041,67.6099191 L85.074244,69.7137256 C85.5017981,71.9367839 84.736774,74.1702414 82.9268361,75.7181544 C81.5849611,76.8700294 79.9621681,77.4281544 78.3866896,77.3450294 C77.8166896,78.7741114 76.6688966,79.9972364 75.0815431,80.7967579 C73.4587501,81.6120509 71.673418,81.8456544 70.1138965,81.5131544 C69.274668,83.2151759 67.7943751,84.6203224 65.9932715,85.3170509 C64.469375,85.9108009 62.885918,85.9069044 61.4926465,85.3645509 C60.4517285,86.2392189 58.9513965,86.6865724 57,86.6865724 C54.5695215,86.6865724 51.430625,85.3408009 49.9738964,84.3828224 C48.2086035,83.2231544 39.3498534,76.5612794 31.9793749,70.3901758 C30.7521678,69.3609473 28.9274999,67.4529688 27.1620213,65.6084473 C26.6460032,65.0705783 26.149011,64.5499218 25.6986157,64.0846714 C25.4402974,64.8975873 25.2744609,65.4065513 25.2343748,65.5295899 C24.9692284,66.3450684 24.2092284,66.8952149 23.3542283,66.8952149 L11.4792283,66.8952149 C10.3867283,66.8952149 9.49999976,66.0084864 9.49999976,64.9159864 L9.49999976,29.2909862 C9.49999976,28.7447362 9.72562476,28.2222362 10.1215818,27.8502147 C10.5173533,27.4741112 11.0359568,27.2881932 11.5979783,27.3158397 C15.6749998,27.5572362 29.2401463,28.5983397 32.6324999,31.8125682 C33.0718749,32.2241112 33.2936034,32.8178612 33.2420214,33.4195897 C33.1921,33.9914589 33.1238942,34.5961791 33.0395408,35.2284862 L48.8724792,35.2284862 C53.9767625,31.2007049 58.5822053,30.226759 65.7242286,33.4194042 C69.8937539,35.2859779 74.0677976,36.9348247 77.0591748,38.0685156 C76.8468201,37.6260006 76.8034065,37.1206897 76.9420216,36.6456933 C77.1002931,36.1033397 77.4843751,35.6559862 77.9988966,35.4145897 C78.3590431,35.2483397 86.9802931,31.2702147 102.520772,31.2702147 C103.613272,31.2702147 104.5,32.1528612 104.5,33.2492577 L104.5,68.8742579 C104.5,69.9667579 103.613272,70.8534864 102.520772,70.8534864 L90.6457717,70.8534864 C89.7551466,70.8534864 88.9752931,70.2597364 88.7377931,69.4008399 C88.606889,68.9264938 88.4270895,68.3214469 88.2064041,67.6099191 Z M86.9382133,63.692562 C84.9059871,57.5981959 81.7659618,48.8171001 79.4431254,43.1703577 C77.3767532,42.4305238 70.7354909,40.0024352 64.1053321,37.0373827 C57.099082,33.9062792 53.7820605,35.5173827 47.349707,41.9536327 C44.646289,44.6572363 42.5601855,48.7027148 42.9758105,50.4403613 C43.0351855,50.6936328 43.145957,50.9589648 43.763457,51.1647363 C45.699082,51.8137793 48.596582,52.1700293 51.3951855,47.9861328 C51.723789,47.4953613 52.254082,47.1786328 52.8439355,47.1192578 C54.1780176,46.9847363 54.5105176,46.8342578 55.5000391,46.3909863 C56.149082,46.1020898 56.9725391,45.7300683 58.3064356,45.2470898 C59.022832,44.9897363 59.8342285,45.1639648 60.376582,45.7102148 C62.5417285,47.8753613 65.9379786,50.6223828 69.5322071,53.5278613 C74.9814385,57.9362001 80.5921422,62.4748312 83.3219641,66.121521 L86.9382133,63.692562 Z M27.0217628,59.8180321 C27.7479937,60.499838 28.8443303,61.6375704 30.0238963,62.8692188 C31.6388964,64.5554688 33.4676464,66.4634473 34.5245214,67.3540723 C42.0491894,73.6558009 50.7615429,80.1553224 52.1509179,81.0696974 C53.3105859,81.8376759 55.6816894,82.7283009 56.9998145,82.7283009 C57.3818343,82.7283009 57.6923181,82.708101 57.9451832,82.6742962 C54.9499402,79.8523334 50.9562754,75.6157753 49.6176464,74.1825684 C48.8734179,73.3828614 48.913125,72.1320899 49.7126464,71.3839649 C50.5082715,70.6358399 51.763125,70.6794434 52.51125,71.4789649 C53.639375,72.6863184 59.4145215,78.833672 62.236875,81.2125685 C62.276073,81.2456355 62.3136667,81.2798974 62.3496474,81.3152557 C63.1233241,81.9818378 63.9761596,81.8443594 64.568086,81.6200294 C65.5234283,81.2493628 66.3089589,80.4381966 66.6819182,79.4992115 C63.3949028,76.5547769 57.5866814,70.2842054 57.5223145,70.2163184 C56.782168,69.4127149 56.8374609,68.1578614 57.6410645,67.4177149 C58.4485645,66.6814649 59.6954395,66.7289649 60.439668,67.5364649 C61.785625,69.0009864 67.742793,75.3303614 70.1138965,77.2264649 C70.1673204,77.269197 70.2179369,77.3141596 70.2657196,77.3611158 C70.7895245,77.789931 72.0750992,77.8783745 73.3082716,77.2541114 C73.7128307,77.0518318 74.5471188,76.5395859 74.7760127,75.6815259 C71.8088615,72.9766686 64.4097499,65.264044 63.491543,64.3066504 C62.7354395,63.5188184 62.7591895,62.2641504 63.550918,61.5080469 C64.33875,60.7480469 65.593418,60.7756934 66.3495215,61.5674219 C70.2454318,65.6286132 76.531835,72.0645259 77.9973701,73.236255 C78.5937524,73.5725137 79.6056183,73.3486324 80.3540431,72.7059864 C80.8884181,72.2508399 81.6762501,71.2572364 80.9438966,69.7333399 C79.4595216,66.6458399 72.860918,61.3098828 67.042168,56.6034863 C63.824043,54.0028613 60.7682715,51.5289648 58.504043,49.4033398 C57.9260645,49.6369433 57.4905859,49.8308398 57.1185645,49.9970898 C56.0895215,50.4602148 55.404668,50.7452148 54.145918,50.9391113 C51.0979394,54.9844043 47.0051464,56.4016113 42.5202929,54.9211328 C40.7312499,54.3314648 39.5277929,53.0647363 39.1201464,51.3547363 C38.1743161,47.354539 41.8153084,41.9066942 44.5192937,39.1869432 L32.3808407,39.1869433 C31.0653227,45.9962586 28.6755779,54.3600095 27.0217628,59.8180321 Z M21.9093748,62.9369434 C23.3818748,58.2897363 28.1279784,42.8878613 29.1768749,34.2191112 C26.6831248,33.0078612 19.8193748,31.9153612 13.4582713,31.4127147 L13.4582713,62.9369434 L21.9093748,62.9369434 Z M100.541729,66.8952149 L100.541729,35.2524218 C91.1248537,35.4739647 84.6370216,37.2355468 81.6168751,38.2606933 C84.7082716,44.8472363 90.2500002,60.7834863 92.1262502,66.8952149 L100.541729,66.8952149 Z" id="path-1"></path>
    </defs>
    <g id="High-fi" stroke="none" stroke-width="1" fill="none" fill-rule="evenodd">
        <g id="Desktop-4" transform="translate(-398.000000, -646.000000)">
            <g id="pics-section" transform="translate(0.000000, 566.000000)">
                <g id="business" transform="translate(357.000000, 80.000000)">
                    <g id="Group" transform="translate(41.500000, 0.000000)">
                        <circle id="Oval-Copy" fill="#FFFFFF" opacity="0.8" cx="70" cy="70" r="70"></circle>
                        <g id="hand-shake" transform="translate(15.000000, 21.000000)">
                            <mask id="mask-2" fill="white">
                                <use xlink:href="#path-1"></use>
                            </mask>
                            <g id="Combined-Shape" fill-rule="nonzero"></g>
                            <g id="colours/primary" mask="url(#mask-2)" fill="#3AA9CF" fill-rule="evenodd" stroke="#FFFFFF" stroke-width="1">
                                <rect id="colours/dark-blue" x="0.5" y="0.5" width="113" height="113"></rect>
                            </g>
                        </g>
                    </g>
                </g>
            </g>
        </g>
    </g>
</svg>