<?xml version="1.0" encoding="UTF-8"?>
<svg width="140px" height="140px" viewBox="0 0 140 140" version="1.1" xmlns="http://www.w3.org/2000/svg" xmlns:xlink="http://www.w3.org/1999/xlink">
    <!-- Generator: Sketch 53.2 (72643) - https://sketchapp.com -->
    <title>Group 2</title>
    <desc>Created with Sketch.</desc>
    <defs>
        <path d="M88.2911394,27.9711673 C88.2911394,27.6547116 88.2208159,27.3382559 88.080169,27.039381 C87.798875,26.4416314 87.253868,26.0372713 86.6561183,25.9142052 L50.8438819,8.54430359 C50.2637131,8.26300964 49.5780591,8.26300964 48.9978903,8.54430359 L12.8340364,26.0724331 C12.1308015,26.4064696 11.6736988,27.1097045 11.6385371,27.9008438 L11.6385371,27.9184246 C11.6385371,27.9360055 11.6385371,27.9535864 11.6385371,27.9887481 L11.6385371,71.9760901 C11.6385371,72.7848102 12.0956398,73.5232069 12.8340364,73.8748243 L48.9978903,91.4029538 C49.0154712,91.4029538 49.0154712,91.4029538 49.033052,91.4205347 C49.0857947,91.4381155 49.1385373,91.4556964 49.1912799,91.4908582 C49.2088608,91.4908582 49.2264416,91.508439 49.2616034,91.508439 C49.314346,91.5260199 49.3670886,91.5436008 49.4198312,91.5611816 C49.4374121,91.5611816 49.454993,91.5787625 49.4725738,91.5787625 C49.5253165,91.5963434 49.5956399,91.5963434 49.6483826,91.6139243 C49.6659634,91.6139243 49.6835443,91.6139243 49.7011252,91.6139243 C49.7714487,91.6139243 49.859353,91.6315051 49.9296765,91.6315051 C50,91.6315051 50.0879044,91.6315051 50.1582278,91.6139243 C50.1758087,91.6139243 50.1933896,91.6139243 50.2109705,91.6139243 C50.2637131,91.6139243 50.3340366,91.5963434 50.3867792,91.5787625 C50.4043601,91.5787625 50.4219409,91.5611816 50.4395218,91.5611816 C50.4922644,91.5436008 50.545007,91.5260199 50.5977497,91.508439 C50.6153305,91.508439 50.6329114,91.4908582 50.6680731,91.4908582 C50.7208158,91.4732773 50.7735584,91.4556964 50.826301,91.4205347 C50.8438819,91.4205347 50.8438819,91.4205347 50.8614627,91.4029538 L87.1308019,73.8220817 C87.8516176,73.4704643 88.3263012,72.7320676 88.3263012,71.9233475 L88.3263012,28.0239099 C88.2911394,28.006329 88.2911394,27.9887481 88.2911394,27.9711673 Z M49.9120956,12.7812938 L81.2763715,27.9887481 L69.7257385,33.5970463 L38.3614627,18.389592 L49.9120956,12.7812938 Z M49.9120956,43.1962025 L18.5478198,27.9887481 L33.5267228,20.727848 L64.8909987,35.9353023 L49.9120956,43.1962025 Z M15.8579464,31.3818564 L47.802391,46.8706048 L47.802391,86.1286922 L15.8579464,70.6399438 L15.8579464,31.3818564 Z M52.0218003,86.1286922 L52.0218003,46.8706048 L67.0182842,39.5921237 L67.0182842,49.859353 C67.0182842,51.0196906 67.9676513,51.9690577 69.1279888,51.9690577 C70.2883264,51.9690577 71.2376935,51.0196906 71.2376935,49.859353 L71.2376935,37.5351617 L84.0717301,31.311533 L84.0717301,70.5696204 L52.0218003,86.1286922 Z" id="path-1"></path>
    </defs>
    <g id="High-fi" stroke="none" stroke-width="1" fill="none" fill-rule="evenodd">
        <g id="Desktop-4" transform="translate(-899.000000, -646.000000)">
            <g id="pics-section" transform="translate(0.000000, 566.000000)">
                <g id="user" transform="translate(884.000000, 80.000000)">
                    <g id="Group-2" transform="translate(15.000000, 0.000000)">
                        <circle id="Oval" fill="#FFFFFF" opacity="0.8" cx="70" cy="70" r="70"></circle>
                        <g id="package" transform="translate(21.000000, 21.000000)">
                            <mask id="mask-2" fill="white">
                                <use xlink:href="#path-1"></use>
                            </mask>
                            <g fill-rule="nonzero"></g>
                            <g id="colours/primary" mask="url(#mask-2)" fill="#3AA9CF" fill-rule="evenodd" stroke="#FFFFFF" stroke-width="1">
                                <rect id="colours/dark-blue" x="0.5" y="0.5" width="99" height="99"></rect>
                            </g>
                        </g>
                    </g>
                </g>
            </g>
        </g>
    </g>
</svg>